<svg version="1.2" baseProfile="tiny-ps" xmlns="http://www.w3.org/2000/svg" viewBox="0 0 381 500" width="381" height="500">
	<title>Journey-rafiki-svg</title>
	<style>
		tspan { white-space:pre }
		.shp0 { fill: #ebebeb } 
		.shp1 { fill: #f0f0f0 } 
		.shp2 { fill: #fafafa } 
		.shp3 { fill: #e6e6e6 } 
		.shp4 { fill: #f5f5f5 } 
		.shp5 { fill: #f4a641 } 
		.shp6 { opacity: 0.302;fill: #000000 } 
		.shp7 { fill: #263238 } 
		.shp8 { fill: #ff8b7b } 
		.shp9 { opacity: 0.2;fill: #000000 } 
		.shp10 { opacity: 0.502;fill: #ffffff } 
		.shp11 { fill: #ff5652 } 
		.shp12 { fill: #ffffff } 
		.shp13 { opacity: 0.702;fill: #ffffff } 
		.shp14 { fill: #e0e0e0 } 
	</style>
	<g id="freepik--background-complete--inject-2">
		<path id="Layer" class="shp0" d="M-66 382.4L434 382.4L434 382.65L-66 382.65L-66 382.4Z" />
		<path id="Layer" class="shp0" d="M350.78 398.49L383.9 398.49L383.9 398.74L350.78 398.74L350.78 398.49Z" />
		<path id="Layer" class="shp0" d="M256.53 401.21L265.22 401.21L265.22 401.46L256.53 401.46L256.53 401.21Z" />
		<path id="Layer" class="shp0" d="M330.59 389.21L349.78 389.21L349.78 389.46L330.59 389.46L330.59 389.21Z" />
		<path id="Layer" class="shp0" d="M-13.54 390.89L29.65 390.89L29.65 391.14L-13.54 391.14L-13.54 390.89Z" />
		<path id="Layer" class="shp0" d="M38.56 390.89L44.89 390.89L44.89 391.14L38.56 391.14L38.56 390.89Z" />
		<path id="Layer" class="shp0" d="M65.47 395.11L159.15 395.11L159.15 395.36L65.47 395.36L65.47 395.11Z" />
		<path id="Layer" fill-rule="evenodd" class="shp0" d="M-22.09 337.8C-22.84 337.8 -23.58 337.65 -24.27 337.36C-24.96 337.07 -25.59 336.65 -26.12 336.12C-26.65 335.59 -27.07 334.96 -27.36 334.27C-27.64 333.58 -27.79 332.84 -27.79 332.09L-27.79 60.66C-27.78 59.92 -27.63 59.18 -27.34 58.49C-27.05 57.81 -26.63 57.18 -26.1 56.66C-25.58 56.13 -24.95 55.72 -24.26 55.43C-23.57 55.15 -22.83 55 -22.09 55L171 55C171.75 55 172.49 55.15 173.19 55.43C173.88 55.72 174.51 56.14 175.04 56.67C175.57 57.2 175.99 57.83 176.28 58.52C176.56 59.22 176.71 59.96 176.71 60.71L176.71 332.09C176.71 332.84 176.56 333.58 176.28 334.28C175.99 334.97 175.57 335.6 175.04 336.13C174.51 336.66 173.88 337.08 173.19 337.37C172.49 337.65 171.75 337.8 171 337.8L-22.09 337.8ZM-22.09 55.2C-22.81 55.2 -23.52 55.34 -24.18 55.62C-24.84 55.89 -25.44 56.3 -25.94 56.8C-26.45 57.31 -26.85 57.91 -27.13 58.57C-27.4 59.23 -27.54 59.94 -27.54 60.66L-27.54 332.09C-27.54 332.81 -27.4 333.52 -27.13 334.18C-26.85 334.84 -26.45 335.44 -25.94 335.95C-25.44 336.45 -24.84 336.86 -24.18 337.13C-23.52 337.41 -22.81 337.55 -22.09 337.55L171 337.55C171.72 337.55 172.43 337.41 173.09 337.13C173.75 336.86 174.35 336.45 174.86 335.95C175.36 335.44 175.77 334.84 176.04 334.18C176.32 333.52 176.46 332.81 176.46 332.09L176.46 60.66C176.46 59.94 176.32 59.23 176.04 58.57C175.77 57.91 175.36 57.31 174.86 56.8C174.35 56.3 173.75 55.89 173.09 55.62C172.43 55.34 171.72 55.2 171 55.2L-22.09 55.2Z" />
		<path id="Layer" fill-rule="evenodd" class="shp0" d="M194.21 337.8C193.46 337.8 192.72 337.65 192.03 337.36C191.33 337.08 190.71 336.65 190.18 336.12C189.65 335.59 189.22 334.97 188.94 334.27C188.65 333.58 188.5 332.84 188.5 332.09L188.5 60.66C188.51 59.91 188.66 59.18 188.95 58.49C189.24 57.81 189.66 57.18 190.19 56.66C190.72 56.13 191.35 55.72 192.04 55.43C192.73 55.15 193.46 55 194.21 55L387.31 55C388.05 55 388.79 55.15 389.48 55.44C390.16 55.72 390.79 56.14 391.32 56.66C391.84 57.19 392.26 57.81 392.55 58.49C392.84 59.18 392.99 59.92 393 60.66L393 332.09C393 332.84 392.85 333.58 392.57 334.27C392.28 334.96 391.86 335.59 391.33 336.12C390.81 336.65 390.18 337.07 389.49 337.36C388.8 337.65 388.06 337.8 387.31 337.8L194.21 337.8ZM194.21 55.2C193.49 55.2 192.78 55.34 192.12 55.62C191.46 55.89 190.86 56.3 190.35 56.8C189.85 57.31 189.44 57.91 189.17 58.57C188.89 59.23 188.75 59.94 188.75 60.66L188.75 332.09C188.75 332.81 188.89 333.52 189.17 334.18C189.44 334.84 189.85 335.44 190.35 335.95C190.86 336.45 191.46 336.86 192.12 337.13C192.78 337.41 193.49 337.55 194.21 337.55L387.31 337.55C388.03 337.55 388.74 337.41 389.4 337.13C390.06 336.86 390.66 336.45 391.17 335.95C391.67 335.44 392.08 334.84 392.35 334.18C392.63 333.52 392.77 332.81 392.77 332.09L392.77 60.66C392.77 59.94 392.63 59.23 392.35 58.57C392.08 57.91 391.67 57.31 391.17 56.8C390.66 56.3 390.06 55.89 389.4 55.62C388.74 55.34 388.03 55.2 387.31 55.2L194.21 55.2Z" />
		<path id="Layer" class="shp1" d="M-17.2 382.4L191.62 382.4L54.09 297.79L-17.2 382.4L-17.2 382.4Z" />
		<path id="Layer" class="shp2" d="M76.9 311.82L54.09 297.79L37.94 316.96L50.24 313.36L57.42 321.3L63.18 313.36L69.43 316.56L71.7 313.36L80.5 317.13L76.9 311.82L76.9 311.82Z" />
		<path id="Layer" class="shp3" d="M22.94 382.4L285.03 382.4L163.72 244.31L22.94 382.4L22.94 382.4Z" />
		<path id="Layer" class="shp1" d="M128.46 278.9L163.72 244.31L194.1 278.9L179.72 271.49L174.13 283.38L162.77 274.97L156.05 282.14L151.08 277.31L141 285.18L138.87 274.94L128.46 278.9L128.46 278.9Z" />
		<path id="Layer" class="shp1" d="M184.16 281.67L194.67 295.36L194.67 285.18L184.16 281.67L184.16 281.67Z" />
		<path id="Layer" class="shp1" d="M130.03 294.57L106.13 313.36L113.39 296.81L130.03 294.57L130.03 294.57Z" />
		<path id="Layer" class="shp4" d="M120.75 382.4L360.35 382.4L249.2 278.9L120.75 382.4L120.75 382.4Z" />
		<path id="Layer" class="shp2" d="M220.05 302.39L249.2 278.9L280.38 307.93L262.84 300.25L260.85 311.82L250.21 303.29L235.57 309.36L235.29 301.01L226.48 304.81L226.77 300.63L220.05 302.39L220.05 302.39Z" />
		<path id="Layer" class="shp2" d="M267.16 306.71L273.16 319.73L277.56 313.84L267.16 306.71L267.16 306.71Z" />
		<path id="Layer" class="shp2" d="M196.21 331.93L213.98 325.23L204.42 323.63L196.21 331.93L196.21 331.93Z" />
		<path id="Layer" class="shp4" d="M240.55 382.4L378.56 382.4L320.77 311.82L240.55 382.4L240.55 382.4Z" />
		<path id="Layer" class="shp2" d="M305.6 325.18L320.77 311.82L339.37 334.53L320.77 324.24L319.07 330.65L314.38 326.04L305.6 325.18L305.6 325.18Z" />
		<path id="Layer" class="shp2" d="M245.26 210.61C216.56 210.61 193.36 187.41 193.36 158.71C193.36 130.01 216.56 106.81 245.26 106.81C273.96 106.81 297.16 130.01 297.16 158.71C297.16 187.41 273.96 210.61 245.26 210.61Z" />
		<path id="Layer" class="shp4" d="M48.23 212.8C57.9 202.37 71.15 195 81.47 195C87.94 195 92.07 197.92 93.55 202.68C98.04 199.97 102.7 198.34 106.7 198.34C113.7 198.34 116.7 203.34 114.91 210.45C115.83 210.07 116.76 209.72 117.7 209.42C118.64 209.11 119.6 208.84 120.57 208.62C121.53 208.39 122.51 208.21 123.49 208.06C124.47 207.92 125.46 207.81 126.45 207.75C133.61 207.43 137.92 210.32 138.76 215.01C139.14 214.82 139.54 214.65 139.94 214.49C140.34 214.34 140.75 214.21 141.16 214.09C141.57 213.98 141.99 213.89 142.41 213.82C142.84 213.74 143.26 213.69 143.69 213.66C147.81 213.48 149.19 216.39 146.77 220.16C146.62 220.4 146.46 220.63 146.3 220.86L32.3 220.86C33.65 217.11 43.12 213 48.23 212.8Z" />
		<path id="Layer" class="shp2" d="M314.65 213C319.14 208.16 325.28 204.72 330.07 204.72C333.07 204.72 334.99 206.08 335.67 208.28C336.12 207.98 336.6 207.72 337.08 207.48C337.57 207.25 338.07 207.05 338.59 206.88C339.1 206.71 339.63 206.58 340.16 206.48C340.69 206.38 341.23 206.31 341.77 206.28C345.04 206.28 346.44 208.61 345.59 211.9C346.01 211.72 346.45 211.56 346.88 211.42C347.32 211.28 347.77 211.16 348.21 211.05C348.66 210.94 349.11 210.86 349.57 210.79C350.02 210.72 350.48 210.67 350.94 210.64C354.26 210.5 356.26 211.84 356.65 214.01C356.83 213.92 357.01 213.84 357.2 213.77C357.38 213.7 357.57 213.64 357.77 213.59C357.96 213.54 358.15 213.49 358.35 213.46C358.54 213.43 358.74 213.4 358.94 213.39C360.85 213.3 361.49 214.65 360.37 216.39L360.15 216.72L307.27 216.72C307.89 215 312.28 213.13 314.65 213Z" />
		<path id="Layer" class="shp1" d="M263.1 119.72C273.95 108.02 288.81 99.72 300.39 99.72C307.65 99.72 312.28 103 313.93 108.33C318.98 105.33 324.2 103.47 328.69 103.47C336.58 103.47 339.96 109.1 337.9 117.05C338.93 116.62 339.97 116.24 341.03 115.9C342.09 115.56 343.16 115.27 344.25 115.01C345.33 114.76 346.42 114.56 347.52 114.4C348.62 114.23 349.73 114.12 350.84 114.05C358.84 113.69 363.72 116.93 364.66 122.2C365.09 121.99 365.53 121.79 365.98 121.62C366.43 121.45 366.88 121.3 367.35 121.17C367.81 121.04 368.28 120.94 368.75 120.86C369.22 120.78 369.7 120.72 370.18 120.68C374.81 120.48 376.35 123.74 373.64 127.98C373.47 128.24 373.29 128.5 373.11 128.75L245.26 128.75C246.74 124.55 257.36 119.93 263.1 119.72Z" />
		<path id="Layer" class="shp4" d="M6 132.71C6.07 132.7 6.15 132.69 6.22 132.69C6.29 132.68 6.37 132.67 6.44 132.67C6.51 132.67 6.59 132.66 6.66 132.66C6.73 132.66 6.81 132.66 6.88 132.66C10.94 129.42 15.16 127.35 18.29 127.35C20.55 127.35 21.88 128.43 22.29 130.26C29.85 123.98 37.88 119.9 43.74 119.9C48.47 119.9 50.92 122.55 51.07 126.9C54.87 124.44 58.58 122.96 61.51 122.96C66.65 122.96 67.88 127.52 65.16 133.96L65.16 133.96C65.86 133.62 66.58 133.32 67.31 133.04C68.03 132.77 68.77 132.53 69.52 132.33C70.27 132.12 71.03 131.95 71.8 131.81C72.56 131.67 73.34 131.57 74.11 131.5C79.4 131.21 81.99 133.83 81.69 138.1C81.99 137.93 82.29 137.78 82.6 137.64C82.91 137.51 83.23 137.39 83.56 137.28C83.88 137.18 84.21 137.09 84.54 137.02C84.88 136.96 85.21 136.9 85.55 136.87C88.44 136.72 88.99 139.07 86.93 142.22L-11 142.22C-6.94 137.43 0.46 133.24 6 132.71Z" />
	</g>
	<g id="freepik--Shadow--inject-2">
		<path id="freepik--path--inject-2" class="shp4" d="M184 427.56C76.78 427.56 -9.89 422.5 -9.89 416.24C-9.89 409.98 76.78 404.92 184 404.92C291.22 404.92 377.89 409.98 377.89 416.24C377.89 422.5 291.22 427.56 184 427.56Z" />
	</g>
	<g id="freepik--Character--inject-2">
		<path id="Layer" class="shp5" d="M215.54 230.1L178.92 230.1C177.23 230.11 175.55 229.77 173.99 229.11C172.43 228.45 171.02 227.47 169.85 226.25C168.68 225.02 167.77 223.57 167.19 221.98C166.6 220.39 166.35 218.69 166.44 217L169.66 149.11C169.76 147.37 170.19 145.66 170.92 144.08C171.65 142.49 172.68 141.06 173.94 139.85C175.2 138.65 176.68 137.69 178.29 137.03C179.91 136.37 181.64 136.02 183.38 136L220 136C221.69 135.99 223.37 136.32 224.93 136.98C226.49 137.65 227.9 138.62 229.07 139.85C230.24 141.07 231.14 142.53 231.73 144.12C232.31 145.71 232.56 147.4 232.47 149.09L229.25 217C229.15 218.74 228.72 220.45 227.99 222.03C227.25 223.61 226.23 225.04 224.97 226.25C223.71 227.45 222.23 228.41 220.62 229.07C219.01 229.73 217.28 230.08 215.54 230.1Z" />
		<path id="Layer" class="shp6" d="M215.54 230.1L178.92 230.1C177.23 230.11 175.55 229.77 173.99 229.11C172.43 228.45 171.02 227.47 169.85 226.25C168.68 225.02 167.77 223.57 167.19 221.98C166.6 220.39 166.35 218.69 166.44 217L169.66 149.11C169.76 147.37 170.19 145.66 170.92 144.08C171.65 142.49 172.68 141.06 173.94 139.85C175.2 138.65 176.68 137.69 178.29 137.03C179.91 136.37 181.64 136.02 183.38 136L220 136C221.69 135.99 223.37 136.32 224.93 136.98C226.49 137.65 227.9 138.62 229.07 139.85C230.24 141.07 231.14 142.53 231.73 144.12C232.31 145.71 232.56 147.4 232.47 149.09L229.25 217C229.15 218.74 228.72 220.45 227.99 222.03C227.25 223.61 226.23 225.04 224.97 226.25C223.71 227.45 222.23 228.41 220.62 229.07C219.01 229.73 217.28 230.08 215.54 230.1Z" />
		<path id="Layer" class="shp5" d="M178.79 124L223.16 124C224.06 124 224.96 124.19 225.79 124.53C226.63 124.88 227.39 125.39 228.03 126.03C228.67 126.67 229.17 127.43 229.52 128.26C229.87 129.1 230.05 130 230.05 130.9L230.05 130.9C230.05 131.8 229.87 132.7 229.52 133.54C229.18 134.37 228.67 135.13 228.03 135.77C227.39 136.41 226.63 136.92 225.8 137.27C224.96 137.62 224.06 137.8 223.16 137.8L178.79 137.8C177.88 137.8 176.99 137.62 176.15 137.27C175.32 136.92 174.56 136.41 173.92 135.77C173.28 135.13 172.77 134.37 172.42 133.54C172.07 132.7 171.89 131.81 171.89 130.9L171.89 130.9C171.89 129.99 172.08 129.1 172.42 128.26C172.77 127.43 173.28 126.67 173.92 126.03C174.56 125.39 175.32 124.88 176.15 124.53C176.99 124.19 177.88 124 178.79 124L178.79 124Z" />
		<path id="Layer" class="shp7" d="M185.15 83.3C162.84 99.48 163.64 114.68 170.42 121.73C176.66 128.22 190.29 133.54 206.14 127.58C218.87 122.79 209.28 102.16 209.14 96.67C209 91.18 185.15 83.3 185.15 83.3Z" />
		<path id="Layer" class="shp7" d="M178.51 88.72C167.91 93.61 162.51 107.28 162.56 113.25C165.84 104.25 172 94.35 179.63 91.6C179.07 90.3 178.51 88.72 178.51 88.72Z" />
		<path id="Layer" class="shp5" d="M174.42 84.44C173.31 87.61 181.18 91.11 185.74 92.44C190.3 93.77 190.61 85.44 190.61 85.44C190.61 85.44 175.49 81.37 174.42 84.44Z" />
		<path id="Layer" class="shp6" d="M174.42 84.44C173.31 87.61 181.18 91.11 185.74 92.44C190.3 93.77 190.61 85.44 190.61 85.44C190.61 85.44 175.49 81.37 174.42 84.44Z" />
		<path id="Layer" class="shp5" d="M146.56 396.4C147.24 398.54 146.11 405.23 144.24 410.19L156.13 397.19C156.13 397.19 154.11 394.07 146.56 396.4Z" />
		<path id="Layer" class="shp5" d="M207.1 397.65C207.79 399.8 208.67 406.15 206.79 411.1C216.37 412.63 215.85 406.1 216.67 398.45C216.67 398.45 214.65 395.33 207.1 397.65Z" />
		<path id="Layer" class="shp8" d="M156.06 327.34L177.06 331.6C173.65 366.44 157.61 407.06 157.61 407.06L148.38 407.06C148.38 407.06 155.73 333.68 156.06 327.34Z" />
		<path id="Layer" class="shp3" d="M148.75 398.5C149.06 396.87 149.34 395.24 149.58 393.6C149.83 391.96 150.04 390.31 150.23 388.66C150.41 387.01 150.56 385.36 150.68 383.71C150.8 382.05 150.88 380.4 150.94 378.74C150.88 377.58 149.55 374.37 153.49 375.74C157.43 377.11 169 377.1 168.89 379C168.78 380.9 167.31 380.64 166.46 383.36C165.61 386.08 160.03 405.25 158.28 408.36C151.42 411.05 146.92 407.05 148.75 398.5Z" />
		<path id="Layer" class="shp9" d="M156.06 327.34C156 328.43 155.73 331.52 155.34 335.87C160.34 336.5 171.57 335.46 176.88 332.97C176.93 332.51 176.98 332.06 177.02 331.6L156.06 327.34Z" />
		<path id="Layer" class="shp8" d="M206.31 330.58L228.38 331.93C231.79 366.77 220.58 407.06 220.58 407.06L211.35 407.06C211.35 407.06 211.35 362.67 206.31 330.58Z" />
		<path id="Layer" class="shp3" d="M210.65 400.51C210.71 398.85 210.73 397.19 210.73 395.53C210.72 393.87 210.68 392.22 210.61 390.56C210.54 388.9 210.44 387.24 210.3 385.59C210.17 383.94 210 382.29 209.8 380.64C209.57 379.51 207.8 376.54 211.87 377.31C215.94 378.08 227.35 376.31 227.58 378.14C227.81 379.97 226.27 380 225.85 382.82C225.43 385.64 222.85 405.43 221.58 408.82C215.21 412.5 210.15 409.23 210.65 400.51Z" />
		<path id="Layer" class="shp9" d="M228.38 331.93L206.31 330.58C206.77 333.48 207.19 336.48 207.56 339.58C209.36 339.45 211.15 339.26 212.93 339.01C214.72 338.76 216.49 338.44 218.26 338.07C220.02 337.69 221.77 337.25 223.5 336.75C225.23 336.26 226.95 335.7 228.64 335.08C228.57 334 228.48 333 228.38 331.93Z" />
		<path id="Layer" class="shp5" d="M206.13 412.29C211.13 408.64 208.22 397.9 208.22 397.9C208.92 397.74 209.62 397.62 210.34 397.54C211.05 397.46 211.76 397.43 212.48 397.43C213.2 397.44 213.91 397.49 214.62 397.59C215.33 397.68 216.04 397.81 216.73 397.99C219.67 404 215.69 414.05 206.13 412.29Z" />
		<path id="Layer" class="shp9" d="M206.13 412.29C211.13 408.64 208.22 397.9 208.22 397.9C208.92 397.74 209.62 397.62 210.34 397.54C211.05 397.46 211.76 397.43 212.48 397.43C213.2 397.44 213.91 397.49 214.62 397.59C215.33 397.68 216.04 397.81 216.73 397.99C219.67 404 215.69 414.05 206.13 412.29Z" />
		<path id="Layer" class="shp5" d="M223.25 414.57L197.85 414.57C193.61 414.57 197.77 407.57 206.12 410.02C214.47 412.47 215.89 403.9 214.31 397.23C221.76 395.47 225.31 398.05 225.31 398.05C223.6 404.33 222.49 410.17 223.25 414.57Z" />
		<path id="Layer" class="shp5" d="M196.99 413.74L222.78 413.74C223.19 413.74 223.53 414.08 223.53 414.49L223.53 415.66C223.53 416.07 223.19 416.41 222.78 416.41L196.99 416.41C196.58 416.41 196.24 416.07 196.24 415.66L196.24 414.49C196.24 414.08 196.58 413.74 196.99 413.74Z" />
		<path id="Layer" class="shp10" d="M196.99 413.74L222.78 413.74C223.19 413.74 223.53 414.08 223.53 414.49L223.53 415.66C223.53 416.07 223.19 416.41 222.78 416.41L196.99 416.41C196.58 416.41 196.24 416.07 196.24 415.66L196.24 414.49C196.24 414.08 196.58 413.74 196.99 413.74Z" />
		<path id="Layer" class="shp5" d="M142.55 410.63C148 407.5 148 396.8 148 396.8C148 396.8 150 395.8 155 397.47C157.32 403.78 152.19 413.34 142.55 410.63Z" />
		<path id="Layer" class="shp9" d="M142.55 410.63C148 407.5 148 396.8 148 396.8C148 396.8 150 395.8 155 397.47C157.32 403.78 152.19 413.34 142.55 410.63Z" />
		<path id="Layer" class="shp5" d="M159.9 414.62L133.82 412.06C129.46 411.63 134.47 405.06 142.82 408.37C151.17 411.68 154.96 403.37 154.03 396.61C161.86 395.61 163.75 398.39 163.75 398.39C161.32 404.47 159.58 410.17 159.9 414.62Z" />
		<path id="Layer" class="shp5" d="M159.22 416.42L132.73 413.81C132.63 413.81 132.53 413.78 132.44 413.74C132.34 413.7 132.26 413.63 132.19 413.56C132.13 413.48 132.07 413.4 132.04 413.3C132.01 413.2 131.99 413.1 132 413L132.13 411.82C132.14 411.72 132.17 411.62 132.22 411.54C132.27 411.45 132.33 411.37 132.41 411.31C132.49 411.25 132.58 411.2 132.67 411.18C132.77 411.15 132.87 411.14 132.97 411.15L159.46 413.76C159.56 413.77 159.65 413.8 159.74 413.84C159.83 413.89 159.91 413.95 159.97 414.02C160.03 414.1 160.08 414.19 160.11 414.28C160.14 414.37 160.16 414.47 160.15 414.57L160.02 415.75C160.01 415.85 159.98 415.94 159.93 416.02C159.89 416.11 159.83 416.18 159.75 416.24C159.68 416.31 159.59 416.35 159.5 416.38C159.41 416.41 159.32 416.43 159.22 416.42Z" />
		<path id="Layer" class="shp10" d="M159.22 416.42L132.73 413.81C132.63 413.81 132.53 413.78 132.44 413.74C132.34 413.7 132.26 413.63 132.19 413.56C132.13 413.48 132.07 413.4 132.04 413.3C132.01 413.2 131.99 413.1 132 413L132.13 411.82C132.14 411.72 132.17 411.62 132.22 411.54C132.27 411.45 132.33 411.37 132.41 411.31C132.49 411.25 132.58 411.2 132.67 411.18C132.77 411.15 132.87 411.14 132.97 411.15L159.46 413.76C159.56 413.77 159.65 413.8 159.74 413.84C159.83 413.89 159.91 413.95 159.97 414.02C160.03 414.1 160.08 414.19 160.11 414.28C160.14 414.37 160.16 414.47 160.15 414.57L160.02 415.75C160.01 415.85 159.98 415.94 159.93 416.02C159.89 416.11 159.83 416.18 159.75 416.24C159.68 416.31 159.59 416.35 159.5 416.38C159.41 416.41 159.32 416.43 159.22 416.42Z" />
		<path id="Layer" class="shp5" d="M189.64 263.32C186.79 272.67 183.22 282.95 178.72 294.04C178.91 297.26 179.03 300.49 179.07 303.72C179.11 306.95 179.08 310.18 178.97 313.41C178.86 316.64 178.67 319.86 178.41 323.08C178.15 326.3 177.81 329.52 177.4 332.72C170.66 335.15 153.65 333.72 152.86 331.65C153.86 318.04 154.86 304.55 155.74 294.04C155.1 258.04 164.23 201.28 164.23 201.28L200.54 201.28C200.54 201.28 201.45 224.38 189.64 263.32Z" />
		<path id="Layer" class="shp9" d="M194.08 247.09C192.28 254.48 189.96 262.68 187.01 271.59C186.14 253.59 181.29 229.59 181.12 228.77L194.08 247.09Z" />
		<path id="Layer" class="shp5" d="M229 335.15C218.35 337.39 203.84 336.48 203 334.2C202.54 321.36 199.8 308.59 197.34 296.76C195.42 287.58 192.66 275.64 189.7 263.32C182.51 233.41 174.18 201.32 174.18 201.32L206.18 201.32C206.18 201.32 226.8 220 220.26 298.22C226 308.39 228.28 321.73 229 335.15Z" />
		<path id="Layer" class="shp8" d="M178.22 149.34C178 150.21 177.82 150.85 177.62 151.59C177.42 152.33 177.21 152.99 176.99 153.68C176.56 155.06 176.1 156.43 175.6 157.78C174.6 160.49 173.54 163.13 172.38 165.78C171.79 167.1 171.17 168.41 170.53 169.71C169.88 171 169.22 172.28 168.52 173.55C167.83 174.82 167.11 176.08 166.36 177.32C165.62 178.56 164.85 179.79 164.06 181C163.23 182.21 162.4 183.41 161.53 184.59L160.18 186.34C160.04 186.53 159.9 186.72 159.75 186.91C159.61 187.1 159.46 187.29 159.31 187.47C159.16 187.65 159.01 187.83 158.85 188.01C158.69 188.19 158.53 188.37 158.37 188.54C158.11 188.81 157.83 189.07 157.55 189.32C157.26 189.56 156.97 189.79 156.66 190.01C156.35 190.23 156.04 190.44 155.71 190.63C155.39 190.82 155.05 190.99 154.71 191.15C154.37 191.3 154.01 191.44 153.66 191.55C153.3 191.67 152.94 191.77 152.57 191.86C152.21 191.94 151.84 192.01 151.46 192.06C151.09 192.1 150.72 192.14 150.34 192.15C149.76 192.17 149.18 192.16 148.61 192.11C148.03 192.06 147.46 191.98 146.89 191.86C146.32 191.74 145.76 191.59 145.22 191.4C144.67 191.22 144.13 191 143.61 190.75C142.86 190.38 142.13 189.98 141.42 189.55C140.71 189.12 140.01 188.65 139.34 188.16C138.67 187.66 138.02 187.14 137.4 186.58C136.78 186.03 136.18 185.45 135.61 184.84C135.34 184.57 135.08 184.3 134.82 184.03C134.57 183.75 134.31 183.48 134.06 183.19C133.81 182.91 133.56 182.63 133.32 182.34C133.08 182.05 132.84 181.76 132.61 181.46C132.38 181.17 132.15 180.87 131.92 180.57C131.7 180.27 131.48 179.97 131.26 179.66C131.04 179.35 130.83 179.04 130.63 178.73C130.42 178.42 130.22 178.1 130.02 177.78C129.55 177.04 129.35 176.16 129.46 175.29C129.56 174.42 129.95 173.61 130.58 173C131.2 172.38 132.02 172 132.89 171.91C133.76 171.83 134.64 172.04 135.37 172.52L135.66 172.71L138.82 174.78C139.89 175.46 140.95 176.12 142.01 176.71C142.46 176.99 142.93 177.25 143.4 177.49C143.88 177.74 144.36 177.96 144.85 178.17C145.34 178.38 145.84 178.57 146.35 178.74C146.85 178.91 147.36 179.06 147.88 179.19C148.65 179.32 149.22 179.25 149.11 179.11C149.07 179.1 149.03 179.08 148.99 179.08C148.95 179.07 148.91 179.07 148.87 179.07C148.83 179.07 148.79 179.07 148.75 179.08C148.71 179.08 148.67 179.1 148.63 179.11C148.41 179.16 148.24 179.26 148.18 179.26C147.97 179.46 148.5 178.68 148.8 178.2L149.8 176.63L151.7 173.4C152.31 172.29 152.91 171.18 153.49 170.05C154.07 168.93 154.64 167.79 155.19 166.65C155.73 165.51 156.26 164.36 156.77 163.2C157.29 162.05 157.78 160.88 158.26 159.71C159.23 157.35 160.14 154.97 161 152.57C161.42 151.36 161.84 150.16 162.24 148.96L162.82 147.17L163.34 145.51L163.43 145.22C164.04 143.34 165.35 141.76 167.1 140.83C168.84 139.9 170.88 139.67 172.78 140.21C174.69 140.74 176.31 141.99 177.32 143.69C178.32 145.4 178.63 147.43 178.17 149.35L178.22 149.34Z" />
		<path id="Layer" class="shp7" d="M171.07 136C163.25 138.22 159.64 145.36 153.07 160.18C155.37 165.28 168.19 169.18 168.19 169.18C168.19 169.18 185.13 145.1 171.07 136Z" />
		<path id="Layer" class="shp7" d="M160.34 149.31C160.28 150.86 160.24 152.42 160.22 153.97C160.21 155.53 160.21 157.08 160.23 158.63C160.26 160.19 160.3 161.74 160.37 163.29C160.44 164.85 160.52 166.4 160.63 167.95C160.96 176.04 164.97 188.25 164.9 201.58C169.05 204.58 192.54 203.96 206.9 202.11C206.03 190.63 206.68 172.72 214.46 146.9C216.26 140.9 212.24 135.16 205.82 134.55C204.11 134.39 202.29 134.25 200.42 134.16C198.78 134.05 197.14 133.97 195.51 133.91C193.87 133.86 192.23 133.83 190.58 133.83C188.94 133.83 187.3 133.86 185.66 133.91C184.03 133.97 182.39 134.05 180.75 134.16C178.62 134.34 176.4 134.59 174.28 134.87C166.61 135.88 160.58 142.14 160.34 149.31Z" />
		<path id="Layer" class="shp5" d="M192.91 152.61C186.48 155.06 174.72 154.71 166.48 151.68L166.48 153.74C179.69 160.17 192.91 154.89 192.91 154.89C192.91 154.89 195.27 154.65 192.91 152.61Z" />
		<path id="Layer" class="shp5" d="M172.88 152.26C171.78 152.57 170.96 156.86 173 157.47C175.04 158.08 180.82 159.04 184.31 157.91C186.22 157.3 186.42 153.45 184.82 152.91C181.82 151.74 174.85 151.72 172.88 152.26Z" />
		<path id="Layer" class="shp8" d="M199 112C197.29 118.33 195.19 129.92 199.3 134.15C199.3 134.15 196.66 140.91 181.62 140C170.62 139.33 179.62 134.15 179.62 134.15C186.8 132.46 187.01 127.23 186.15 122.31L199 112Z" />
		<path id="Layer" class="shp9" d="M193.78 116.25L186.18 122.34C186.23 122.63 186.28 122.92 186.32 123.21C186.36 123.5 186.4 123.79 186.43 124.08C186.46 124.37 186.48 124.67 186.49 124.96C186.51 125.25 186.52 125.55 186.52 125.84C189.25 125.45 193.17 122.49 193.67 119.66C193.73 119.38 193.78 119.1 193.81 118.81C193.85 118.53 193.87 118.25 193.88 117.96C193.89 117.67 193.88 117.39 193.87 117.1C193.85 116.82 193.82 116.53 193.78 116.25Z" />
		<path id="Layer" class="shp8" d="M204.41 99.34C202.49 109.56 201.9 113.91 196.07 118.81C187.3 126.18 175.25 122.29 174.07 111.87C173.07 102.49 176.35 87.36 186.87 83.99C197.39 80.62 206.33 89.13 204.41 99.34Z" />
		<path id="Layer" class="shp7" d="M196.67 94.81C193.46 99.06 194.91 105.44 201.46 106.01C208.01 106.58 208.82 98.63 207.78 95.78C206.74 92.93 196.67 94.81 196.67 94.81Z" />
		<path id="Layer" class="shp7" d="M186.18 83.43C177.8 87.07 182.48 90.34 184.94 91.66C184.97 91.42 185.01 91.18 185.06 90.95C185.11 90.71 185.17 90.48 185.24 90.24C185.3 90.01 185.38 89.78 185.46 89.56C185.55 89.33 185.64 89.11 185.74 88.89C185.84 88.67 190.4 96.17 198.31 96.98C208.31 97.98 206.9 94.39 206.9 94.39C206.9 94.39 201.65 79.11 186.18 83.43Z" />
		<path id="Layer" class="shp7" d="M187 82.78C182.36 83.35 175 85.08 174.39 90.19C176.69 88.9 182.39 88.51 182.39 88.51L187 82.78Z" />
		<path id="Layer" class="shp7" d="M201.55 100.92C198.95 102.34 195.03 105.06 195.84 108.21C196.9 106.92 200.13 105.37 200.13 105.37L201.55 100.92Z" />
		<path id="Layer" class="shp7" d="M188.23 101.05C188.1 101.91 187.56 102.58 187 102.54C186.44 102.5 186.1 101.76 186.22 100.9C186.34 100.04 186.9 99.37 187.45 99.41C188 99.45 188.35 100.18 188.23 101.05Z" />
		<path id="Layer" class="shp7" d="M177.79 100.43C177.67 101.29 177.12 101.96 176.57 101.92C176.02 101.88 175.66 101.15 175.79 100.28C175.92 99.41 176.46 98.75 177.02 98.79C177.58 98.83 177.92 99.57 177.79 100.43Z" />
		<path id="Layer" class="shp7" d="M177.25 98.86L175.31 98.11C175.31 98.11 176.12 99.81 177.25 98.86Z" />
		<path id="Layer" class="shp11" d="M180.49 102.06C180.23 102.54 179.96 103.01 179.67 103.47C179.38 103.94 179.07 104.39 178.75 104.83C178.44 105.27 178.1 105.71 177.76 106.13C177.41 106.55 177.05 106.96 176.68 107.36C177.68 108.5 179.62 108.16 179.62 108.16L180.49 102.06Z" />
		<path id="Layer" class="shp7" d="M184 111.71C183.88 111.72 183.76 111.73 183.64 111.74C183.52 111.74 183.4 111.74 183.28 111.74C183.16 111.74 183.04 111.74 182.92 111.74C182.8 111.73 182.68 111.72 182.56 111.71C182.53 111.71 182.5 111.7 182.47 111.68C182.44 111.67 182.41 111.65 182.39 111.62C182.38 111.6 182.36 111.57 182.35 111.54C182.35 111.5 182.34 111.47 182.35 111.44C182.35 111.41 182.36 111.37 182.38 111.34C182.4 111.31 182.42 111.29 182.44 111.26C182.47 111.24 182.5 111.23 182.53 111.21C182.56 111.2 182.6 111.2 182.63 111.2C183.17 111.24 183.71 111.23 184.25 111.15C184.79 111.07 185.31 110.93 185.82 110.73C186.33 110.54 186.81 110.29 187.26 109.98C187.71 109.68 188.12 109.33 188.49 108.93C188.51 108.91 188.54 108.89 188.57 108.88C188.6 108.87 188.63 108.86 188.67 108.86C188.7 108.86 188.73 108.87 188.76 108.88C188.79 108.89 188.82 108.91 188.84 108.93C188.86 108.95 188.88 108.98 188.9 109.01C188.91 109.04 188.92 109.08 188.92 109.11C188.92 109.14 188.91 109.18 188.9 109.21C188.88 109.24 188.86 109.27 188.84 109.29C188.53 109.63 188.19 109.94 187.82 110.22C187.45 110.5 187.06 110.74 186.64 110.95C186.23 111.15 185.8 111.32 185.36 111.45C184.91 111.58 184.46 111.66 184 111.71L184 111.71Z" />
		<path id="Layer" class="shp8" d="M205.36 108.53C205.12 108.96 204.83 109.37 204.5 109.74C204.17 110.11 203.81 110.44 203.41 110.74C203.01 111.03 202.58 111.29 202.13 111.49C201.68 111.7 201.21 111.86 200.73 111.97C198.31 112.41 197.5 109.61 198.51 106.97C199.41 104.59 201.76 101.48 204.03 102.26C206.3 103.04 206.75 106.24 205.36 108.53Z" />
		<path id="Layer" class="shp7" d="M190.94 96.66C190.91 96.66 190.87 96.65 190.84 96.64C190.81 96.63 190.78 96.61 190.75 96.6C190.72 96.58 190.7 96.56 190.67 96.54C190.65 96.51 190.63 96.49 190.61 96.46C190.45 96.2 190.25 95.96 190.03 95.75C189.81 95.53 189.56 95.35 189.29 95.2C189.02 95.05 188.74 94.93 188.44 94.84C188.14 94.76 187.84 94.72 187.53 94.71C187.46 94.71 187.4 94.7 187.34 94.68C187.28 94.66 187.22 94.63 187.17 94.58C187.13 94.53 187.09 94.48 187.07 94.42C187.04 94.36 187.03 94.3 187.03 94.23C187.03 94.16 187.05 94.09 187.08 94.03C187.11 93.97 187.14 93.91 187.19 93.86C187.24 93.81 187.3 93.78 187.36 93.75C187.42 93.72 187.49 93.7 187.56 93.7C187.95 93.7 188.34 93.75 188.71 93.85C189.09 93.95 189.45 94.1 189.79 94.29C190.13 94.48 190.45 94.71 190.73 94.97C191.01 95.24 191.26 95.54 191.47 95.87C191.52 95.96 191.54 96.05 191.54 96.15C191.54 96.25 191.51 96.35 191.45 96.43C191.4 96.51 191.32 96.58 191.23 96.62C191.14 96.66 191.04 96.67 190.94 96.66L190.94 96.66Z" />
		<path id="Layer" class="shp7" d="M175.81 93.71C175.78 93.71 175.75 93.71 175.72 93.71C175.68 93.7 175.65 93.7 175.62 93.69C175.59 93.68 175.56 93.66 175.54 93.65C175.51 93.63 175.48 93.61 175.46 93.59C175.41 93.54 175.38 93.49 175.35 93.43C175.33 93.37 175.31 93.3 175.31 93.23C175.31 93.17 175.33 93.1 175.35 93.04C175.38 92.98 175.41 92.93 175.46 92.88C175.72 92.57 176.02 92.29 176.35 92.05C176.67 91.81 177.03 91.61 177.4 91.44C177.77 91.28 178.16 91.16 178.56 91.09C178.96 91.01 179.36 90.98 179.77 91C179.83 91.01 179.9 91.03 179.95 91.06C180.01 91.1 180.05 91.14 180.09 91.19C180.13 91.25 180.16 91.31 180.17 91.37C180.18 91.43 180.18 91.5 180.17 91.56C180.16 91.63 180.13 91.69 180.1 91.75C180.06 91.81 180.02 91.86 179.96 91.9C179.91 91.94 179.85 91.97 179.78 91.99C179.72 92.01 179.65 92.02 179.58 92.01C179.26 92 178.93 92.03 178.62 92.1C178.3 92.16 177.99 92.26 177.7 92.4C177.41 92.53 177.13 92.7 176.87 92.9C176.62 93.09 176.38 93.32 176.18 93.57C176.15 93.59 176.13 93.61 176.1 93.63C176.07 93.65 176.04 93.66 176.01 93.67C175.98 93.68 175.94 93.69 175.91 93.7C175.88 93.71 175.84 93.71 175.81 93.71Z" />
		<path id="Layer" class="shp7" d="M187.69 99.47L185.74 98.72C185.74 98.72 186.55 100.42 187.69 99.47Z" />
		<path id="Layer" class="shp8" d="M127.84 164.26L131.03 164.75C131.32 164.79 131.61 164.87 131.89 164.98C132.16 165.09 132.43 165.24 132.67 165.41C132.91 165.59 133.13 165.79 133.32 166.01C133.52 166.24 133.68 166.49 133.82 166.75L136.38 171.81C136.64 172.31 136.83 172.83 136.97 173.37C137.1 173.92 137.16 174.47 137.16 175.03C137.16 175.59 137.1 176.14 136.97 176.69C136.83 177.23 136.64 177.75 136.38 178.25L135.73 179.49C130.37 179.05 124.91 174.62 124.91 174.62L123.22 173.54C122.87 173.32 122.56 173.04 122.32 172.7C122.08 172.37 121.91 171.99 121.82 171.58C121.73 171.18 121.71 170.76 121.78 170.36C121.85 169.95 122 169.56 122.22 169.21L124.33 165.82C124.52 165.54 124.75 165.29 125 165.07C125.26 164.85 125.55 164.67 125.86 164.53C126.17 164.4 126.5 164.3 126.83 164.26C127.17 164.21 127.51 164.21 127.84 164.26Z" />
		<path id="Layer" class="shp7" d="M164.15 204.37C167.76 204.77 171.38 205.06 175.01 205.26C178.63 205.45 182.27 205.55 185.9 205.54C189.53 205.53 193.16 205.42 196.79 205.21C200.41 205 204.03 204.69 207.64 204.28C207.79 204.25 207.93 204.2 208.05 204.11C208.18 204.02 208.28 203.9 208.35 203.77C208.42 203.64 208.46 203.49 208.47 203.34C208.48 203.19 208.45 203.04 208.39 202.9C208.04 202.07 207.68 201.23 207.34 200.4C207.3 200.31 207.25 200.22 207.19 200.14C207.13 200.07 207.05 200 206.97 199.95C206.88 199.9 206.79 199.86 206.69 199.84C206.6 199.82 206.5 199.81 206.4 199.82C202.93 200.2 199.45 200.49 195.96 200.68C192.48 200.87 188.99 200.97 185.5 200.97C182 200.97 178.51 200.87 175.03 200.68C171.54 200.49 168.06 200.2 164.59 199.82C164.47 199.81 164.34 199.83 164.23 199.87C164.11 199.91 164 199.97 163.91 200.05C163.82 200.13 163.74 200.23 163.69 200.34C163.63 200.45 163.6 200.57 163.59 200.69C163.51 201.56 163.42 202.42 163.33 203.29C163.32 203.41 163.33 203.54 163.36 203.66C163.4 203.78 163.45 203.89 163.53 203.99C163.6 204.09 163.7 204.17 163.8 204.24C163.91 204.3 164.03 204.35 164.15 204.37L164.15 204.37Z" />
		<path id="Layer" class="shp5" d="M164.17 193.4C167.76 193.8 171.36 194.1 174.97 194.3C178.58 194.5 182.19 194.6 185.8 194.6C189.42 194.6 193.03 194.5 196.64 194.3C200.25 194.1 203.85 193.8 207.44 193.4C208.07 193.33 208.32 192.64 207.93 192.04C207.41 191.22 208.29 190.22 207.78 189.39C207.73 189.3 207.66 189.22 207.58 189.14C207.51 189.07 207.42 189.01 207.33 188.96C207.24 188.91 207.14 188.87 207.03 188.85C206.93 188.83 206.83 188.82 206.72 188.82C203.15 189.2 199.57 189.48 195.98 189.67C192.4 189.86 188.81 189.95 185.22 189.95C181.63 189.95 178.04 189.86 174.46 189.67C170.87 189.48 167.29 189.2 163.72 188.82C163.6 188.8 163.48 188.81 163.37 188.85C163.26 188.89 163.16 188.95 163.08 189.03C162.99 189.12 162.93 189.22 162.9 189.33C162.86 189.44 162.85 189.56 162.87 189.68L163.11 192.24C163.12 192.38 163.15 192.52 163.2 192.65C163.26 192.79 163.33 192.91 163.43 193.01C163.53 193.12 163.64 193.2 163.77 193.27C163.89 193.34 164.03 193.38 164.17 193.4L164.17 193.4Z" />
		<path id="Layer" fill-rule="evenodd" class="shp12" d="M174.35 210L173.83 210C173.52 209.99 173.23 209.91 172.95 209.78C172.67 209.65 172.43 209.46 172.23 209.23C172.02 209 171.87 208.73 171.78 208.44C171.68 208.15 171.64 207.84 171.67 207.54C171.47 202.44 179.5 191.21 185.14 190.2C185.17 190.19 185.2 190.19 185.23 190.2C185.26 190.2 185.28 190.21 185.31 190.22C185.34 190.23 185.36 190.25 185.38 190.27C185.4 190.29 185.42 190.31 185.43 190.34C185.45 190.36 185.46 190.39 185.47 190.41C185.48 190.44 185.48 190.47 185.48 190.49C185.48 190.52 185.48 190.55 185.47 190.58C185.46 190.6 185.45 190.63 185.43 190.65C182 194.28 180.7 198.92 179.66 202.65C178.47 206.69 177.55 210 174.35 210ZM184.37 190.91C184.36 190.92 184.35 190.93 184.34 190.94C184.34 190.94 184.35 190.94 184.35 190.94L184.37 190.91ZM172.19 207.49C172.16 207.73 172.19 207.97 172.26 208.2C172.33 208.43 172.45 208.64 172.61 208.83C172.76 209.01 172.96 209.16 173.18 209.26C173.39 209.36 173.63 209.42 173.87 209.43C177.02 209.75 177.87 206.7 179.07 202.43C180.09 198.89 181.3 194.54 184.34 190.94C179.07 192.82 172.02 202.94 172.19 207.49Z" />
		<path id="Layer" class="shp5" d="M253.42 407.06L250.98 407.79L190.61 211.66L195.14 210.29L253.42 407.06L253.42 407.06Z" />
		<path id="Layer" class="shp13" d="M253.42 407.06L250.98 407.79L190.61 211.66L195.14 210.29L253.42 407.06L253.42 407.06Z" />
		<path id="Layer" class="shp5" d="M190.47 190.15L190.31 189.64C190.27 189.5 190.2 189.38 190.11 189.27C190.02 189.16 189.91 189.07 189.78 189C189.66 188.93 189.52 188.89 189.38 188.88C189.24 188.86 189.1 188.88 188.96 188.92L183.96 190.44C183.82 190.48 183.7 190.55 183.59 190.64C183.48 190.73 183.38 190.84 183.32 190.96C183.25 191.09 183.21 191.23 183.19 191.37C183.18 191.51 183.19 191.65 183.23 191.79L183.39 192.3C183.43 192.44 183.5 192.56 183.59 192.67C183.68 192.78 183.79 192.87 183.92 192.94C184.04 193.01 184.18 193.05 184.32 193.06C184.46 193.08 184.6 193.06 184.74 193.02L184.93 192.97C184.93 192.97 184.93 192.98 184.93 192.98C184.93 192.99 184.93 192.99 184.93 193C184.93 193.01 184.93 193.01 184.93 193.02C184.93 193.02 184.93 193.03 184.93 193.03L190.32 210.85L190.14 210.91C190 210.95 189.88 211.02 189.77 211.11C189.66 211.2 189.57 211.31 189.5 211.44C189.44 211.56 189.39 211.7 189.38 211.84C189.37 211.98 189.38 212.12 189.42 212.26L189.57 212.77C189.61 212.91 189.68 213.03 189.77 213.14C189.86 213.25 189.97 213.34 190.1 213.41C190.22 213.47 190.36 213.52 190.5 213.53C190.64 213.54 190.78 213.53 190.92 213.49L195.92 211.97C196.06 211.93 196.18 211.86 196.29 211.77C196.4 211.68 196.49 211.57 196.56 211.44C196.63 211.32 196.67 211.18 196.68 211.04C196.7 210.9 196.68 210.76 196.64 210.62L196.49 210.11C196.45 209.97 196.38 209.85 196.29 209.74C196.2 209.63 196.09 209.53 195.97 209.47C195.84 209.4 195.7 209.36 195.56 209.34C195.42 209.33 195.28 209.34 195.14 209.38L194.93 209.45L189.53 191.62C189.53 191.62 189.53 191.61 189.53 191.61C189.53 191.6 189.53 191.6 189.53 191.59C189.53 191.58 189.53 191.58 189.53 191.57C189.53 191.57 189.53 191.56 189.53 191.56L189.74 191.5C189.88 191.46 190 191.39 190.11 191.3C190.22 191.21 190.32 191.1 190.38 190.98C190.45 190.85 190.49 190.71 190.51 190.57C190.52 190.43 190.51 190.29 190.47 190.15L190.47 190.15Z" />
		<path id="Layer" class="shp6" d="M190.47 190.15L190.31 189.64C190.27 189.5 190.2 189.38 190.11 189.27C190.02 189.16 189.91 189.07 189.78 189C189.66 188.93 189.52 188.89 189.38 188.88C189.24 188.86 189.1 188.88 188.96 188.92L183.96 190.44C183.82 190.48 183.7 190.55 183.59 190.64C183.48 190.73 183.38 190.84 183.32 190.96C183.25 191.09 183.21 191.23 183.19 191.37C183.18 191.51 183.19 191.65 183.23 191.79L183.39 192.3C183.43 192.44 183.5 192.56 183.59 192.67C183.68 192.78 183.79 192.87 183.92 192.94C184.04 193.01 184.18 193.05 184.32 193.06C184.46 193.08 184.6 193.06 184.74 193.02L184.93 192.97C184.93 192.97 184.93 192.98 184.93 192.98C184.93 192.99 184.93 192.99 184.93 193C184.93 193.01 184.93 193.01 184.93 193.02C184.93 193.02 184.93 193.03 184.93 193.03L190.32 210.85L190.14 210.91C190 210.95 189.88 211.02 189.77 211.11C189.66 211.2 189.57 211.31 189.5 211.44C189.44 211.56 189.39 211.7 189.38 211.84C189.37 211.98 189.38 212.12 189.42 212.26L189.57 212.77C189.61 212.91 189.68 213.03 189.77 213.14C189.86 213.25 189.97 213.34 190.1 213.41C190.22 213.47 190.36 213.52 190.5 213.53C190.64 213.54 190.78 213.53 190.92 213.49L195.92 211.97C196.06 211.93 196.18 211.86 196.29 211.77C196.4 211.68 196.49 211.57 196.56 211.44C196.63 211.32 196.67 211.18 196.68 211.04C196.7 210.9 196.68 210.76 196.64 210.62L196.49 210.11C196.45 209.97 196.38 209.85 196.29 209.74C196.2 209.63 196.09 209.53 195.97 209.47C195.84 209.4 195.7 209.36 195.56 209.34C195.42 209.33 195.28 209.34 195.14 209.38L194.93 209.45L189.53 191.62C189.53 191.62 189.53 191.61 189.53 191.61C189.53 191.6 189.53 191.6 189.53 191.59C189.53 191.58 189.53 191.58 189.53 191.57C189.53 191.57 189.53 191.56 189.53 191.56L189.74 191.5C189.88 191.46 190 191.39 190.11 191.3C190.22 191.21 190.32 191.1 190.38 190.98C190.45 190.85 190.49 190.71 190.51 190.57C190.52 190.43 190.51 190.29 190.47 190.15L190.47 190.15Z" />
		<path id="Layer" fill-rule="evenodd" class="shp14" d="M113.85 174.88C113.69 174.88 113.53 174.86 113.37 174.84C113.21 174.82 113.05 174.79 112.9 174.75C112.74 174.71 112.59 174.66 112.44 174.6C112.29 174.54 112.14 174.47 112 174.39C111.72 174.26 111.47 174.08 111.26 173.86C111.05 173.63 110.89 173.37 110.79 173.08C110.68 172.79 110.64 172.49 110.66 172.18C110.68 171.87 110.75 171.57 110.89 171.3C112.57 166.48 124.15 158.97 129.77 160.09C129.8 160.1 129.82 160.1 129.85 160.12C129.88 160.13 129.9 160.15 129.92 160.17C129.94 160.19 129.95 160.21 129.97 160.24C129.98 160.26 129.99 160.29 129.99 160.32C129.99 160.35 129.99 160.38 129.98 160.41C129.98 160.43 129.97 160.46 129.95 160.49C129.94 160.51 129.92 160.53 129.9 160.55C129.88 160.57 129.86 160.59 129.83 160.6C125.32 162.72 122.41 166.6 120.08 169.65C117.92 172.5 116.13 174.88 113.85 174.88ZM128.55 160.52C122.92 160.52 112.89 167.23 111.41 171.52C111.3 171.73 111.23 171.97 111.21 172.21C111.19 172.45 111.22 172.69 111.3 172.91C111.38 173.14 111.5 173.35 111.67 173.53C111.83 173.7 112.03 173.84 112.25 173.94C115.08 175.4 116.99 172.87 119.64 169.36C121.87 166.42 124.64 162.8 128.77 160.56L128.55 160.52Z" />
		<path id="Layer" class="shp5" d="M114.05 386.95L111.51 386.75L127 182.12L131.71 182.5L114.05 386.95L114.05 386.95Z" />
		<path id="Layer" class="shp13" d="M114.05 386.95L111.51 386.75L127 182.12L131.71 182.5L114.05 386.95L114.05 386.95Z" />
		<path id="Layer" class="shp5" d="M134.72 162L134.77 161.47C134.78 161.33 134.76 161.19 134.72 161.05C134.67 160.91 134.6 160.79 134.51 160.68C134.42 160.57 134.3 160.48 134.18 160.42C134.05 160.35 133.91 160.31 133.77 160.3L128.53 159.88C128.39 159.87 128.24 159.89 128.11 159.93C127.97 159.97 127.85 160.05 127.74 160.14C127.63 160.23 127.54 160.34 127.48 160.47C127.41 160.6 127.37 160.74 127.36 160.88L127.36 161.42C127.35 161.56 127.37 161.7 127.41 161.84C127.46 161.98 127.53 162.1 127.62 162.21C127.71 162.32 127.83 162.4 127.95 162.47C128.08 162.53 128.22 162.57 128.36 162.58L128.56 162.58C128.56 162.58 128.56 162.58 128.56 162.64L127 181.25L126.81 181.25C126.67 181.24 126.53 181.26 126.39 181.3C126.25 181.35 126.13 181.42 126.02 181.51C125.91 181.6 125.83 181.72 125.76 181.84C125.7 181.97 125.66 182.11 125.65 182.25L125.65 182.78C125.64 182.92 125.66 183.07 125.7 183.2C125.74 183.34 125.82 183.46 125.91 183.57C126 183.68 126.11 183.77 126.24 183.83C126.37 183.9 126.51 183.94 126.65 183.95L131.89 184.37C132.03 184.38 132.18 184.36 132.31 184.32C132.45 184.28 132.57 184.2 132.68 184.11C132.79 184.02 132.88 183.91 132.94 183.78C133.01 183.65 133.05 183.51 133.06 183.37L133.06 182.84C133.07 182.7 133.05 182.55 133.01 182.42C132.97 182.28 132.89 182.16 132.8 182.05C132.71 181.94 132.6 181.85 132.47 181.79C132.34 181.72 132.2 181.68 132.06 181.67L131.84 181.67L133.33 163.11L133.33 163L133.56 163C133.7 163.01 133.84 162.99 133.98 162.95C134.12 162.9 134.24 162.83 134.35 162.74C134.46 162.65 134.54 162.53 134.61 162.41C134.67 162.28 134.71 162.14 134.72 162L134.72 162Z" />
		<path id="Layer" class="shp6" d="M134.72 162L134.77 161.47C134.78 161.33 134.76 161.19 134.72 161.05C134.67 160.91 134.6 160.79 134.51 160.68C134.42 160.57 134.3 160.48 134.18 160.42C134.05 160.35 133.91 160.31 133.77 160.3L128.53 159.88C128.39 159.87 128.24 159.89 128.11 159.93C127.97 159.97 127.85 160.05 127.74 160.14C127.63 160.23 127.54 160.34 127.48 160.47C127.41 160.6 127.37 160.74 127.36 160.88L127.36 161.42C127.35 161.56 127.37 161.7 127.41 161.84C127.46 161.98 127.53 162.1 127.62 162.21C127.71 162.32 127.83 162.4 127.95 162.47C128.08 162.53 128.22 162.57 128.36 162.58L128.56 162.58C128.56 162.58 128.56 162.58 128.56 162.64L127 181.25L126.81 181.25C126.67 181.24 126.53 181.26 126.39 181.3C126.25 181.35 126.13 181.42 126.02 181.51C125.91 181.6 125.83 181.72 125.76 181.84C125.7 181.97 125.66 182.11 125.65 182.25L125.65 182.78C125.64 182.92 125.66 183.07 125.7 183.2C125.74 183.34 125.82 183.46 125.91 183.57C126 183.68 126.11 183.77 126.24 183.83C126.37 183.9 126.51 183.94 126.65 183.95L131.89 184.37C132.03 184.38 132.18 184.36 132.31 184.32C132.45 184.28 132.57 184.2 132.68 184.11C132.79 184.02 132.88 183.91 132.94 183.78C133.01 183.65 133.05 183.51 133.06 183.37L133.06 182.84C133.07 182.7 133.05 182.55 133.01 182.42C132.97 182.28 132.89 182.16 132.8 182.05C132.71 181.94 132.6 181.85 132.47 181.79C132.34 181.72 132.2 181.68 132.06 181.67L131.84 181.67L133.33 163.11L133.33 163L133.56 163C133.7 163.01 133.84 162.99 133.98 162.95C134.12 162.9 134.24 162.83 134.35 162.74C134.46 162.65 134.54 162.53 134.61 162.41C134.67 162.28 134.71 162.14 134.72 162L134.72 162Z" />
		<path id="Layer" class="shp8" d="M137.14 174.2C137.66 170.37 134.55 167.2 133.88 164.12C133.76 163.61 132.98 163.58 132.65 163.98C132.01 164.75 132.48 167.17 132.79 167.84C133.24 168.77 128.65 172.56 134.46 176.07C134.72 175.99 134.98 175.88 135.23 175.76C135.48 175.64 135.72 175.5 135.94 175.34C136.17 175.18 136.39 175.01 136.59 174.82C136.79 174.63 136.97 174.42 137.14 174.2Z" />
		<path id="Layer" class="shp8" d="M184.46 198.44L186.33 195.81C186.5 195.57 186.7 195.35 186.93 195.15C187.16 194.95 187.4 194.79 187.67 194.65C187.93 194.51 188.21 194.41 188.5 194.34C188.79 194.27 189.09 194.23 189.39 194.23L195.07 194.23C195.63 194.23 196.18 194.3 196.73 194.43C197.27 194.56 197.79 194.75 198.29 195.01C198.79 195.26 199.25 195.58 199.67 195.94C200.09 196.31 200.47 196.72 200.79 197.18L201.6 198.33C198.79 202.9 192.38 205.78 192.38 205.78L190.65 206.78C190.3 207 189.91 207.15 189.5 207.22C189.1 207.29 188.68 207.28 188.28 207.19C187.87 207.09 187.49 206.92 187.16 206.68C186.82 206.44 186.54 206.13 186.32 205.78L184.24 202.37C184.07 202.07 183.94 201.74 183.86 201.41C183.78 201.07 183.75 200.72 183.77 200.37C183.79 200.03 183.86 199.68 183.97 199.36C184.09 199.03 184.25 198.72 184.46 198.44L184.46 198.44Z" />
		<path id="Layer" class="shp8" d="M218.6 145.75C218.98 146.59 219.25 147.19 219.54 147.89C219.83 148.59 220.08 149.24 220.34 149.89C220.86 151.24 221.34 152.6 221.74 153.96C221.95 154.64 222.16 155.33 222.35 156.02C222.55 156.71 222.74 157.4 222.92 158.09C223.09 158.79 223.26 159.48 223.42 160.18C223.58 160.88 223.73 161.58 223.87 162.28C224.16 163.68 224.4 165.11 224.63 166.53C224.86 167.95 225.01 169.4 225.11 170.86C225.18 171.59 225.23 172.33 225.27 173.06C225.31 173.8 225.34 174.53 225.36 175.27C225.38 176 225.38 176.74 225.37 177.47C225.36 178.21 225.34 178.94 225.31 179.68L225.31 180.16C225.31 180.24 225.3 180.33 225.3 180.41C225.29 180.5 225.28 180.58 225.27 180.66C225.26 180.75 225.24 180.83 225.23 180.91C225.21 181 225.19 181.08 225.17 181.16C225.04 181.65 224.89 182.13 224.72 182.61C224.54 183.09 224.34 183.55 224.12 184.01C223.9 184.47 223.66 184.91 223.39 185.34C223.13 185.78 222.85 186.2 222.54 186.6C222.3 186.92 222.06 187.22 221.8 187.53C221.55 187.83 221.29 188.13 221.02 188.42C220.75 188.71 220.48 188.99 220.2 189.27C219.91 189.55 219.62 189.82 219.33 190.08C219.07 190.32 218.81 190.55 218.54 190.77C218.27 191 218 191.22 217.72 191.44C217.45 191.66 217.17 191.87 216.89 192.08C216.61 192.29 216.32 192.49 216.03 192.69C214.92 193.46 213.82 194.18 212.69 194.82C212.14 195.14 211.59 195.44 211.03 195.74C210.47 196.04 209.91 196.33 209.34 196.61C208.77 196.89 208.2 197.16 207.62 197.43C207.04 197.69 206.46 197.95 205.88 198.19C205.3 198.44 204.72 198.67 204.14 198.9C203.55 199.13 202.97 199.34 202.37 199.55C201.78 199.76 201.19 199.96 200.59 200.15C199.99 200.34 199.39 200.52 198.79 200.69C197.93 200.94 197.01 200.87 196.19 200.51C195.37 200.15 194.7 199.52 194.3 198.72C193.9 197.92 193.79 197 193.99 196.13C194.19 195.26 194.7 194.48 195.41 193.94L195.58 193.82C197.31 192.48 199.19 191.09 200.93 189.7C202.67 188.31 204.41 186.9 205.93 185.45C206.31 185.12 206.67 184.78 207.04 184.44C207.4 184.1 207.75 183.74 208.1 183.38C208.44 183.02 208.78 182.66 209.11 182.28C209.44 181.91 209.77 181.53 210.08 181.14C210.2 180.99 210.32 180.84 210.44 180.68C210.55 180.52 210.66 180.36 210.77 180.2C210.87 180.04 210.97 179.87 211.07 179.7C211.17 179.53 211.26 179.36 211.35 179.19C211.62 178.63 211.69 178.19 211.6 178.24L211.45 179.7C211.25 177.37 211.01 175.05 210.58 172.7C210.15 170.35 209.66 168.01 209.05 165.7C208.44 163.39 207.77 161.03 207 158.7C206.62 157.54 206.21 156.4 205.81 155.27L205.19 153.59L204.61 152.07L204.46 151.68C203.78 149.83 203.83 147.78 204.62 145.97C205.4 144.16 206.86 142.73 208.68 141.96C210.5 141.2 212.54 141.16 214.38 141.87C216.23 142.58 217.73 143.97 218.57 145.75L218.6 145.75Z" />
		<path id="Layer" class="shp7" d="M206.2 134.65C213.25 135.74 216.07 137.88 221.83 152.05C219.22 157.33 206.98 162.39 206.98 162.39C206.98 162.39 198.87 144 206.2 134.65Z" />
		<path id="Layer" class="shp5" d="M199.64 133.31C195.43 133.77 190.4 146.83 191.64 159.87C192.88 172.91 205.76 180.72 207.75 178.3C207.82 178.08 207.88 177.85 207.93 177.62C207.98 177.4 208.02 177.17 208.05 176.94C208.08 176.7 208.1 176.47 208.11 176.24C208.11 176.01 208.11 175.77 208.1 175.54C206.55 174.99 200.65 170.72 199.8 161.75C198.95 152.78 208.3 135.95 207.75 134.65C207.2 133.35 202.16 133 199.64 133.31Z" />
		<path id="Layer" class="shp5" d="M178.94 133.83C174.12 134.04 171.12 134.63 170.03 136.02C168.94 137.41 157.23 150.88 160.21 170.78C160.5 172.7 161.34 177.85 162.04 178.05C163.04 178.32 161.35 166.57 167.84 152.61C174.33 138.65 180.35 134.49 178.94 133.83Z" />
		<path id="Layer" class="shp5" d="M181.69 83.3C190.82 85.59 202.69 92.88 209.69 99.68C211 96.06 212 87 203.13 81.78C201.5 80.77 199.72 80.03 197.86 79.57C196 79.12 194.08 78.95 192.17 79.09C190.25 79.22 188.38 79.66 186.6 80.37C184.82 81.09 183.16 82.07 181.69 83.3L181.69 83.3Z" />
		<path id="Layer" class="shp5" d="M202.8 93.94C194.08 93.48 192.52 90.06 189.29 87.14C188.27 86.31 187.15 85.61 185.95 85.06C184.76 84.51 183.5 84.12 182.2 83.88C180.91 83.65 179.59 83.58 178.28 83.67C176.96 83.76 175.67 84.02 174.42 84.44C174.78 82.14 188.06 79.13 202.8 93.94Z" />
	</g>
</svg>