<svg xmlns="http://www.w3.org/2000/svg" viewBox="0 0 500 500"><g id="freepik--background-simple--inject-31"><path d="M302.48,167.38c-46.83-28.9-73.07-65.48-132.71-72.67-49.89-6-76.85,16.63-93,53.79C37.09,240.08,119.9,325,226.24,352c100.75,25.57,185.64-16.16,215.4-95.66,11.24-30,14.37-80.27-37.63-87.71C365.86,163.16,342.38,192,302.48,167.38Z" style="fill:#FF930F"></path><path d="M302.48,167.38c-46.83-28.9-73.07-65.48-132.71-72.67-49.89-6-76.85,16.63-93,53.79C37.09,240.08,119.9,325,226.24,352c100.75,25.57,185.64-16.16,215.4-95.66,11.24-30,14.37-80.27-37.63-87.71C365.86,163.16,342.38,192,302.48,167.38Z" style="fill:#fff;opacity:0.9"></path></g><g id="freepik--Shadow--inject-31"><ellipse id="freepik--path--inject-31" cx="250" cy="416.24" rx="193.89" ry="11.32" style="fill:#f5f5f5"></ellipse></g><g id="freepik--Flower--inject-31"><path d="M365.34,312.24c2-15.32,31-51.78,46.48-48.4S365.34,312.24,365.34,312.24Z" style="fill:#FF930F"></path><path d="M365.34,312.24c2-15.32,31-51.78,46.48-48.4S365.34,312.24,365.34,312.24Z" style="opacity:0.30000000000000004"></path><path d="M365,312.25c5.82-15.31-6.75-67.38-25.5-74.32S365,312.25,365,312.25Z" style="fill:#FF930F"></path><path d="M365,312.25c5.82-15.31-6.75-67.38-25.5-74.32S365,312.25,365,312.25Z" style="opacity:0.30000000000000004"></path><path d="M365,312.25c-2.4-11.14-27.48-36.44-39.77-33.17S365,312.25,365,312.25Z" style="fill:#FF930F"></path><path d="M365,312.25c-2.4-11.14-27.48-36.44-39.77-33.17S365,312.25,365,312.25Z" style="opacity:0.30000000000000004"></path><path d="M365.34,312.24c-2.95-16.11,18.83-65.05,38.52-68.48S365.34,312.24,365.34,312.24Z" style="fill:#FF930F"></path><path d="M365.34,312.24c-6.13-15.19,2.56-76.18,21.16-83.51S365.34,312.24,365.34,312.24Z" style="fill:#FF930F"></path><path d="M365.34,312.24c4.37-10.53,33.62-30.87,45.11-25.43S365.34,312.24,365.34,312.24Z" style="fill:#FF930F"></path><path d="M365,312.25c.79-15.43-21.08-56.53-37-56S365,312.25,365,312.25Z" style="fill:#FF930F"></path><path d="M365,312.25c10.9-12.23,7-90.62-8-93.52C337.43,214.91,365,312.25,365,312.25Z" style="fill:#FF930F"></path><path d="M365,312.25c-3.69-8.92-27.44-26.21-36.53-21.65S365,312.25,365,312.25Z" style="fill:#FF930F"></path><path d="M380.9,308.75h-30c-7.79,35-6.32,71.57,2.73,106.6h24.56C387.21,380.32,388.68,343.79,380.9,308.75Z" style="fill:#FF930F"></path><path d="M380.9,308.75h-30c-7.79,35-6.32,71.57,2.73,106.6h24.56C387.21,380.32,388.68,343.79,380.9,308.75Z" style="fill:#fff;opacity:0.7000000000000001"></path><path d="M384.44,329.49h-37a.39.39,0,0,1,0-.77h37a.39.39,0,1,1,0,.77Z" style="fill:#fff"></path><path d="M385.16,337.22H346.61a.39.39,0,1,1,0-.78h38.55a.39.39,0,1,1,0,.78Z" style="fill:#fff"></path></g><g id="freepik--character-1--inject-31"><path d="M97.43,142.21l-10.5-2.08,5.92-11.39s9.27,3,8.46,8.22Z" style="fill:#ffb573"></path><path d="M80.67,131l2.75-3.64a3.7,3.7,0,0,1,4.68-1.06l4.75,2.49-5.92,11.39-5.47-3.94A3.71,3.71,0,0,1,80.67,131Z" style="fill:#ffb573"></path><path d="M150.28,137.79l-.65,1.28-.63,1.17-1.28,2.28q-1.29,2.25-2.66,4.45c-1.83,2.93-3.81,5.79-5.9,8.6a90.15,90.15,0,0,1-6.87,8.2,62,62,0,0,1-8.46,7.52l-.37.27a8.05,8.05,0,0,1-6.91,1.23,19.49,19.49,0,0,1-6.88-3.59,34.8,34.8,0,0,1-4.27-4A65.09,65.09,0,0,1,99.25,157a89.74,89.74,0,0,1-4.78-8.34c-.7-1.42-1.4-2.83-2-4.28l-1-2.17-.46-1.1c-.2-.35-.27-.75.61-1.69A14.28,14.28,0,0,1,99,135.17l2.3-.52c1.22-.28,1.49,0,1.64.3l.58.9,1.19,1.78c.8,1.19,1.59,2.38,2.42,3.54,1.62,2.34,3.28,4.62,5,6.78a50,50,0,0,0,5.14,5.82,17.66,17.66,0,0,0,2.42,2c.69.46,1.3.62,1.07.49l-7.27,1.5a46.2,46.2,0,0,0,5.62-5.78c1.8-2.19,3.52-4.55,5.18-7s3.21-5,4.7-7.65c.75-1.3,1.47-2.62,2.18-4l1-2,.5-1,.43-.89.11-.23a9.55,9.55,0,1,1,17.19,8.34Z" style="fill:#FF930F"></path><path d="M193.64,373.91c1.25,6.22,6.22,23.84,6.26,28.51,3.92,3.83,7.66,3.75,9,.35s-1.76-28.16-1.76-28.16Z" style="fill:#ffb573"></path><path d="M193.82,305.55c-6.92-45.49-4.44-70.81-7.42-92.21L140,213.06c0,8.1,6,41,26.1,92,11.57,29.35,28,79.64,28,79.64l14.46-3.91S205.29,341,193.82,305.55Z" style="fill:#263238"></path><path d="M162.38,239.13s-2.54,20.75-4.41,44.26q2.52,7.17,5.5,15C176.5,279,182.9,251.81,184,241Z" style="opacity:0.2"></path><path d="M181.1,409.76s15.3-4.51,16.42-10.54a1.05,1.05,0,0,1,1.24-.88l11.11,1.86a1.48,1.48,0,0,1,1.13,1L214.39,412l-3.14.09-1.16-1.55-1.32,1.63c-17.06.53-24.44.58-27.85-.38C180.39,410.31,181.1,409.76,181.1,409.76Z" style="fill:#263238"></path><path d="M209.65,388.71c-2.64,1.07-12.25,2.25-14.34,1.73s-3.22-7.9-3.22-7.9,15.18-5,16.75-4.05S209.65,388.71,209.65,388.71Z" style="fill:#FF930F"></path><path d="M209.65,388.71c-2.64,1.07-12.25,2.25-14.34,1.73s-3.22-7.9-3.22-7.9,15.18-5,16.75-4.05S209.65,388.71,209.65,388.71Z" style="fill:#fff;opacity:0.30000000000000004"></path><path d="M119.34,370.25c-1.6,6.14-6.74,23.23-8.76,27.43,1.84,5.18,6.75,5.26,9.47,2.81s11.13-23.67,11.13-23.67Z" style="fill:#ffb573"></path><path d="M159.75,300.11c14.19-43.59,36.44-62.52,35.82-86.7l-41.84-.35s-16.26,61.45-21.38,90.24-16.22,75.75-16.22,75.75l11.78,5.72S155.13,333.83,159.75,300.11Z" style="fill:#263238"></path><path d="M89.39,395.49s16.33,3,20.79-1.55a1.24,1.24,0,0,1,1.62-.18l8.91,6.43a1.19,1.19,0,0,1,.45,1.32L118,412l-2.88-1.31-.16-1.8-2.12.78c-15.62-7.06-22.28-10.26-24.79-12.56C88.43,395.64,89.39,395.49,89.39,395.49Z" style="fill:#263238"></path><path d="M127.77,391.61c-2.77-.67-12.17-5.81-13.57-7.45s2-8.3,2-8.3,13.78,4.55,14.85,6S127.77,391.61,127.77,391.61Z" style="fill:#FF930F"></path><path d="M127.77,391.61c-2.77-.67-12.17-5.81-13.57-7.45s2-8.3,2-8.3,13.78,4.55,14.85,6S127.77,391.61,127.77,391.61Z" style="fill:#fff;opacity:0.30000000000000004"></path><path d="M186,118.94a180.34,180.34,0,0,0-37.21-.24,20.71,20.71,0,0,0-18.51,20.65c.06,19,5,25.14,8.22,54.37-2.63,3.42-.69,8.33,1.51,8.85,18.52,4.4,46-.86,55.17-3,4-1,1.7-6.3,1.7-6.3,0-9.87-2-9.09-1.43-21.29,1.65-12.05.36-21.11,2.72-37.12A14,14,0,0,0,186,118.94Z" style="fill:#FF930F"></path><path d="M185.69,135.27C184.4,146.4,191.51,165,195.33,174c0-.63,0-1.32.06-2,1-7.52.92-13.87,1.27-21.47Z" style="opacity:0.2"></path><path d="M177.76,118.78c-6.09,7.3-22.86,14.46-25.08,19.9-3.39-12.27-3.13-18.47,1.85-19.17C169,117.64,177.76,118.78,177.76,118.78Z" style="fill:#fff"></path><path d="M171.75,96.92a49.77,49.77,0,0,0,4.13,21.24,1.37,1.37,0,0,1-.32,1.51c-3.84,3.45-9.7,6.28-17.65,6.38s-7.41-2.35-5.55-5.11a3.37,3.37,0,0,1,1-1c5.38-3.19,5.57-7.46,4.07-10Z" style="fill:#ffb573"></path><path d="M171.74,96.92l-14.28,13a6.06,6.06,0,0,1,.3,5.46,12,12,0,0,0,8.22-3c3.68-3.13,4.93-6.83,5.85-12C171.77,99.31,171.75,98.16,171.74,96.92Z" style="opacity:0.2"></path><path d="M149.72,79.34c-2.28,3.06.8,6.61.87,9.47s-.2,6.61,3.21,2.45S153.31,75.06,149.72,79.34Z" style="fill:#263238"></path><path d="M146.68,78.65c4.06,4.39,7.84,3.69,7.84,3.69S147.42,86.1,146.68,78.65Z" style="fill:#263238"></path><path d="M176,90.2c-.64,9.59.73,11.13-4.15,16-7.34,7.31-19.27,8.71-21-1-1.52-8.75-2.37-24.61,7.06-28.3A13.25,13.25,0,0,1,176,90.2Z" style="fill:#ffb573"></path><path d="M175,96.69c-4.13,2.87-5.9-3.09-5.64-3.58,1.17-2.13,1-3.87-.8-7.68s5.76-8.83,11.57-7.5c5.35,1.23.29,5.66,1.18,9C182.9,93,178.33,94.38,175,96.69Z" style="fill:#263238"></path><path d="M170,80.53c-3.63,3-8.27,2.47-9,2,4.32,2.13,7.39,1.61,8.65,1S170,80.53,170,80.53Z" style="fill:#263238"></path><path d="M153.78,101.89s2.66-.88,10.27-1.76c-.7,2.2-2.21,4.11-6.11,4.52S153.78,101.89,153.78,101.89Z" style="fill:#fff"></path><path d="M180.36,96.62a8.73,8.73,0,0,1-4.43,4.67c-2.57,1.11-4-1.41-3.38-4.29.55-2.58,2.55-6.28,5.18-6.15S181.45,94,180.36,96.62Z" style="fill:#ffb573"></path><path d="M164.39,91.13c0,.82-.41.89-.94.86s-1-.14-1-1,.5-1.46,1-1.43S164.43,90.31,164.39,91.13Z" style="fill:#263238"></path><path d="M154.38,91.72c0,.82-.41.89-.94.86s-1-.14-1-1,.5-1.46,1-1.44S154.42,90.9,154.38,91.72Z" style="fill:#263238"></path><path d="M155.93,91.35A22,22,0,0,1,153,96.76a3.65,3.65,0,0,0,3,.54Z" style="fill:#ed893e"></path><path d="M165.92,87.46a.51.51,0,0,0,.22-.11.48.48,0,0,0,0-.68A4.83,4.83,0,0,0,162.09,85a.48.48,0,0,0-.4.55.48.48,0,0,0,.55.4h0a3.85,3.85,0,0,1,3.22,1.36A.48.48,0,0,0,165.92,87.46Z" style="fill:#263238"></path><path d="M149.5,90.13a.49.49,0,0,0,.43-.15,3.79,3.79,0,0,1,3.23-1.27.48.48,0,0,0,.55-.39.49.49,0,0,0-.39-.56,4.75,4.75,0,0,0-4.09,1.56.49.49,0,0,0,0,.68A.55.55,0,0,0,149.5,90.13Z" style="fill:#263238"></path><path d="M140,213.06a50.79,50.79,0,0,1,0-10.49c0-1.09,50.94-3.18,55.17-3,5.31.21.79,24.44-3.37,32.68C154.84,234.66,141.12,219.43,140,213.06Z" style="fill:#263238"></path><path d="M141.27,203.6c5.78-.91,43.56-3.23,53.76-2.53a.71.71,0,0,1,.62.48,8.83,8.83,0,0,1,.37,3.28.71.71,0,0,1-.71.67c-3.58.07-22.27.52-53.91,2.68a.73.73,0,0,1-.78-.7c0-1,0-2.41,0-3.19A.74.74,0,0,1,141.27,203.6Z" style="fill:#fff"></path><path d="M172.42,200.65c.43.77.48,6.92.48,6.92l2.7-.31s.43-5.18-.07-6.61A14.59,14.59,0,0,0,172.42,200.65Z" style="fill:#263238"></path><path d="M149.88,202.22c-.53,2.06.11,6.35.11,6.35l-2.4.21s-.78-4.95-.4-6.29A5.28,5.28,0,0,1,149.88,202.22Z" style="fill:#263238"></path><path d="M173.82,81c-8.22,2.6-18-1.18-21.66,1.58-3.77-.58-6.65-7.89-.41-10.69s13.17-.61,19.34-2.28C180.15,67.15,186.25,77.07,173.82,81Z" style="fill:#263238"></path><path d="M178,77.76c4.59-1.9,5.14-5.05,5.14-5.05S184,79.33,178,77.76Z" style="fill:#263238"></path><path d="M197.8,127.51c1.81,3.54,3.43,6.91,5,10.42s3.11,7,4.56,10.64,2.8,7.31,4,11.24c.59,2,1.13,4,1.57,6.19a33,33,0,0,1,.76,7.66v.22a6.69,6.69,0,0,1-.21,1.49,51.74,51.74,0,0,1-2,6c-.72,1.83-1.48,3.57-2.26,5.28-1.56,3.41-3.22,6.68-4.92,9.89s-3.51,6.35-5.37,9.44c-.95,1.53-1.88,3.07-2.86,4.59l-1.48,2.27-.74,1.13c-.21.4-.54.73-1.83.55a14.4,14.4,0,0,1-8.75-4.68l-.61-.68c-.85-.95-.74-1.39-.52-1.76l.54-1.18,1.09-2.37,2.15-4.75,4.26-9.45c1.39-3.14,2.72-6.28,3.91-9.38.59-1.54,1.14-3.08,1.62-4.58a35.73,35.73,0,0,0,1.11-4.15l-.22,1.71a21.3,21.3,0,0,0-.65-3.38c-.38-1.43-.88-3-1.45-4.54-1.15-3.14-2.53-6.37-4-9.6s-3-6.46-4.64-9.68-3.29-6.48-4.95-9.51l0-.07a9.55,9.55,0,1,1,16.75-9.18C197.71,127.33,197.76,127.44,197.8,127.51Z" style="fill:#FF930F"></path></g><g id="freepik--character-2--inject-31"><path d="M279.37,98c6.26,1.49,14.91,7.67,14.4,29.76-.56,24.22,16.62,32.18,2.65,47.2s-53.46,5.41-47.51-14,11.4-24.6,5.64-37.58c-5-11.15,1.86-19.36,7.73-19.31C266.37,97.08,274.58,96.84,279.37,98Z" style="fill:#263238"></path><path d="M298.82,169.94a.2.2,0,0,1-.13,0,.26.26,0,0,1-.1-.36c7.31-12.31,3.61-16-.67-20.35-3.8-3.83-8.1-8.17-5-19.31,2.46-8.84,1.79-16.62-1.94-22.5-3.17-5-8.13-7.84-11.64-8.44a.26.26,0,0,1-.22-.3.25.25,0,0,1,.3-.22c3.63.62,8.75,3.54,12,8.68,2.65,4.19,5.16,11.56,2,22.92-3,10.84,1,14.89,4.87,18.8,4.25,4.28,8.27,8.33.76,21A.28.28,0,0,1,298.82,169.94Z" style="fill:#263238"></path><path d="M259.6,395.74c-1.71,1.31-4.51,7.16-5.77,12.07l-2.15-16.71S255,389.77,259.6,395.74Z" style="fill:#263238"></path><path d="M290.18,336.48l-18.75-8.2C254.93,357.42,245.12,398,245.12,398l7.22,5.08S286.94,341.62,290.18,336.48Z" style="fill:#b55b52"></path><path d="M256.73,396.18a124,124,0,0,1,9.17-16.67c.68-.86,3.49-2.65-.36-3.72s-12.83-7.47-13.82-6,.33,2.15-.5,4.76-7,20.66-7.38,24.09C247.73,404.53,253.46,403.88,256.73,396.18Z" style="fill:#e6e6e6"></path><path d="M290.18,336.48c-.55.88-2,3.45-4.13,7.07-4.23-2.24-12.47-9.25-15.26-14.13.21-.39.42-.76.64-1.14Z" style="opacity:0.2"></path><path d="M254.9,409.09c-2.56-5.46,3.38-13.8,3.38-13.8s-1-1.89-5.82-3.32C247.12,395.59,245.87,405.9,254.9,409.09Z" style="fill:#FF930F"></path><path d="M254.9,409.09c-2.56-5.46,3.38-13.8,3.38-13.8s-1-1.89-5.82-3.32C247.12,395.59,245.87,405.9,254.9,409.09Z" style="opacity:0.2"></path><path d="M239.13,402.66,261,415c3.65,2.07,3.35-5.84-5-7.82s-6.76-10.56-2.3-15.37c-5.58-5.09-8.59-3.95-8.59-3.95C243.61,393.94,241.84,399.35,239.13,402.66Z" style="fill:#263238"></path><path d="M238.68,404.44,260.84,417a.73.73,0,0,0,1-.26l.55-1a.72.72,0,0,0-.3-1L239.92,402.2a.72.72,0,0,0-1,.27l-.55,1A.73.73,0,0,0,238.68,404.44Z" style="fill:#FF930F"></path><path d="M238.68,404.44,260.84,417a.73.73,0,0,0,1-.26l.55-1a.72.72,0,0,0-.3-1L239.92,402.2a.72.72,0,0,0-1,.27l-.55,1A.73.73,0,0,0,238.68,404.44Z" style="fill:#fff;opacity:0.5"></path><path d="M269.37,402.4c-.65,2.05-1.49,8.13.3,12.87-9.16,1.46-8.66-4.83-9.45-12.11C260.22,403.16,262.15,400.18,269.37,402.4Z" style="fill:#263238"></path><path d="M270.13,338.24,249,339.53c-3.26,33.32,7.46,71.87,7.46,71.87h8.83S265.31,368.93,270.13,338.24Z" style="fill:#b55b52"></path><path d="M266,405.13a124.28,124.28,0,0,1,.81-19c.23-1.08,2-3.92-2-3.18s-14.81-1-15,.79,1.25,1.78,1.65,4.48,2.89,21.63,4.09,24.87C261.62,416.6,266.46,413.48,266,405.13Z" style="fill:#e6e6e6"></path><path d="M249,339.53l21.11-1.3c-.44,2.78-.83,5.65-1.19,8.57a73.46,73.46,0,0,1-20.17-4.3C248.84,341.51,248.93,340.52,249,339.53Z" style="opacity:0.2"></path><path d="M270.31,416.4c-4.74-3.49-2-13.76-2-13.76a17.16,17.16,0,0,0-8.15.08C257.35,408.5,261.16,418.08,270.31,416.4Z" style="fill:#FF930F"></path><path d="M270.31,416.4c-4.74-3.49-2-13.76-2-13.76a17.16,17.16,0,0,0-8.15.08C257.35,408.5,261.16,418.08,270.31,416.4Z" style="opacity:0.2"></path><path d="M253.93,418.58h24.29c4.06,0,.08-6.73-7.9-4.35S261,408.37,262.48,402c-7.13-1.68-10.5.79-10.5.79C253.59,408.79,254.65,414.37,253.93,418.58Z" style="fill:#263238"></path><rect x="253.67" y="417.79" width="26.1" height="2.56" rx="0.71" transform="translate(533.44 838.14) rotate(180)" style="fill:#FF930F"></rect><rect x="253.67" y="417.79" width="26.1" height="2.56" rx="0.71" transform="translate(533.44 838.14) rotate(180)" style="fill:#fff;opacity:0.5"></rect><path d="M268.49,275.58c2.73,8.94,6.38,18.41,10.68,29-8.43,12.33-9.48,11.78-12.57,22.78,5,4.65,22.77,14.15,24.25,12.59,8.92-18.33,12.16-25.28,12.28-42.14.61-34.46-8.15-83.28-8.15-83.28H260.24S257.19,238.33,268.49,275.58Z" style="fill:#263238"></path><path d="M279.72,252.2c-.12,1.05-1.5,27.66-1.37,50.38-4-9.8-7.31-18.63-9.86-27q-1.42-4.69-2.56-9.09Z" style="opacity:0.2"></path><path d="M247.38,342.61c10.43,2.14,24.22,1.27,24.79-.91-.93-12.29.32-24.51,1.41-35.82.86-8.78,2.22-20.2,3.73-32,3.68-28.62,8.21-59.35,8.21-59.35h-30.6s-17.79,17.9-3.17,92.74C247.32,317,246.6,329.76,247.38,342.61Z" style="fill:#263238"></path><path d="M295.65,162.55c.88,5.38,1.8,10.93,2.75,16.36.49,2.71,1,5.41,1.53,8.09s1.13,5.25,1.84,7.83l4.58,16.23c1.49,5.46,2.94,11,4.18,16.52h0a3.35,3.35,0,0,1-6.23,2.28c-2.67-5.07-5.08-10.23-7.4-15.43s-4.53-10.43-6.59-15.89a130.63,130.63,0,0,1-4.91-17c-1.28-5.69-2.28-11.31-3-17.14a6.7,6.7,0,0,1,13.25-1.94Z" style="fill:#b65b52"></path><path d="M290.3,152.63c6.87,3.64,8,7.92,11.19,23.1-3.81,6.91-19.12,5.46-19.12,5.46S275.33,158.34,290.3,152.63Z" style="fill:#FF930F"></path><path d="M298.7,164.83a166,166,0,0,1-.28,17.82c-.32,7.75-4.15,19.43-4.08,32.17-4,2.89-26.44,2.28-40.16.51.83-11,.21-28.11-7.23-52.82-1.72-5.72,2.12-11.22,8.27-11.81,1.64-.16,3.38-.29,5.16-.37a142.26,142.26,0,0,1,18.82,0c2,.18,4.16.42,6.19.68C292.7,152,298.47,158,298.7,164.83Z" style="fill:#FF930F"></path><path d="M293.64,179.91c-7.54-6.82-14.91-14-21.88-21.43l-.57-.6a60.57,60.57,0,0,0-8.17-7.66l-1.17.05.38.25a58.09,58.09,0,0,1,8.44,7.85l.57.6c7,7.42,14.36,14.64,21.92,21.47a49,49,0,0,0,5.11,4.21c0-.27.05-.55.08-.82A52.55,52.55,0,0,1,293.64,179.91Z" style="fill:#fff"></path><path d="M290.31,157.16a45.07,45.07,0,0,0,7.94,4.77c-.08-.32-.17-.63-.28-.94a42.32,42.32,0,0,1-7.21-4.39,20,20,0,0,1-4.78-5.48l-.59-.11-.31,0A20.37,20.37,0,0,0,290.31,157.16Z" style="fill:#fff"></path><path d="M272.13,209.9c-3.72-2.66-8.27-3.76-12.68-4.83l-1.85-.45c-1.05-.26-2.13-.56-3.21-.9,0,.26,0,.51,0,.76,1,.31,2,.59,3,.84l1.85.45c4.34,1,8.83,2.14,12.44,4.72a17.08,17.08,0,0,1,5.32,6.33h.8A17.85,17.85,0,0,0,272.13,209.9Z" style="fill:#fff"></path><path d="M294.36,213.15a9.68,9.68,0,0,1-5.51.26c-4.28-1.12-7.59-4.51-10.51-7.49-7.82-8-15.66-15.35-25.45-17.67,0,.25.07.51.11.76,9.48,2.35,17.16,9.57,24.82,17.41,2.84,2.9,6.37,6.52,10.85,7.68a10.36,10.36,0,0,0,5.68-.2C294.35,213.65,294.35,213.4,294.36,213.15Z" style="fill:#fff"></path><path d="M276.34,182.36c-2-1-4.2-1.88-6.27-2.73a82.61,82.61,0,0,1-7.64-3.43,44,44,0,0,1-10.07-7.34,26.27,26.27,0,0,1-5.68-7.54,8.82,8.82,0,0,0,.27,1.19c.16.53.3,1,.45,1.56a31.12,31.12,0,0,0,4.46,5.31,44.93,44.93,0,0,0,10.23,7.46c2.5,1.32,5.15,2.4,7.71,3.46,2.06.84,4.2,1.72,6.23,2.71a52.93,52.93,0,0,1,19.72,16.64c.05-.33.11-.66.16-1A53.59,53.59,0,0,0,276.34,182.36Z" style="fill:#fff"></path><path d="M261.7,129.17c1.64,6.05,3.65,17.14-.28,21.18a44.78,44.78,0,0,0,18.07,8.51c8.35-3.58.74-8.51.74-8.51-6.87-1.61-7.07-6.62-6.24-11.32Z" style="fill:#b55b52"></path><path d="M266.71,133.19,274,139a19.18,19.18,0,0,0-.33,3.34c-2.61-.37-6.36-3.2-6.83-5.9A9.07,9.07,0,0,1,266.71,133.19Z" style="opacity:0.2"></path><path d="M261.63,114.14c-1.05,9.88-1.7,14,2.3,20.13,6,9.16,18.12,8.9,22-.33,3.53-8.3,4.65-23.08-4.07-29.06A12.74,12.74,0,0,0,261.63,114.14Z" style="fill:#b55b52"></path><path d="M271.92,103.62c7.65,4.94-6.21,15.29-12.07,16.87C254.92,112.33,263.23,100.14,271.92,103.62Z" style="fill:#263238"></path><path d="M262.89,105.53c11.11,6.22,23.76,3.07,26.41,12C288.88,103.51,277,96.76,262.89,105.53Z" style="fill:#263238"></path><path d="M287.57,124.37c-1-1.5-17.21-5.38-16.54-3.17C271.77,123.63,289.58,127.34,287.57,124.37Z" style="fill:#a02724;opacity:0.30000000000000004"></path><path d="M274.37,119.65c-.13.83.19,1.59.71,1.71s1-.46,1.16-1.29-.19-1.59-.71-1.7S274.49,118.83,274.37,119.65Z" style="fill:#263238"></path><path d="M284.1,122c-.13.82.19,1.59.71,1.7s1-.46,1.17-1.29-.2-1.58-.72-1.7S284.22,121.13,284.1,122Z" style="fill:#263238"></path><path d="M285,120.67l2-.15S285.81,121.85,285,120.67Z" style="fill:#263238"></path><path d="M282.8,123.2a24.73,24.73,0,0,0,2,5.9c-1.2.79-2.91-.07-2.91-.07Z" style="fill:#a02724"></path><path d="M278.25,130.86a8.24,8.24,0,0,0,1.37.14.22.22,0,0,0,.22-.24.26.26,0,0,0-.25-.25,6.94,6.94,0,0,1-5.39-2.66.24.24,0,0,0-.33-.07.24.24,0,0,0-.05.34A7.28,7.28,0,0,0,278.25,130.86Z" style="fill:#263238"></path><path d="M257.79,123.3a6.8,6.8,0,0,0,3.95,3.86c2.23.73,3.36-1.82,2.75-4.46-.55-2.38-2.38-5.62-4.63-5.18S256.77,121,257.79,123.3Z" style="fill:#b55b52"></path><path d="M258.43,109.8c4.71,9.6,6.37,16.77,6,20.15C269,116.57,264.42,107.9,258.43,109.8Z" style="fill:#263238"></path><path d="M279,113.83a.45.45,0,0,0-.31.19,3.59,3.59,0,0,1-3,1.62.44.44,0,0,0-.49.44.53.53,0,0,0,.49.52,4.49,4.49,0,0,0,3.79-2,.49.49,0,0,0-.14-.67A.54.54,0,0,0,279,113.83Z" style="fill:#263238"></path><path d="M286.21,115.5a.43.43,0,0,0-.35,0,.49.49,0,0,0-.17.66,5.16,5.16,0,0,0,3.61,2.74.46.46,0,0,0,.5-.44.52.52,0,0,0-.45-.54,4.08,4.08,0,0,1-2.84-2.2A.52.52,0,0,0,286.21,115.5Z" style="fill:#263238"></path><path d="M275.29,118.36l2-.15S276.07,119.54,275.29,118.36Z" style="fill:#263238"></path><path d="M313.24,238.31l.95-2.94a3.62,3.62,0,0,0-.53-3.26l-3.23-4.36A6.75,6.75,0,0,0,304.9,225l-1.34,0c-1.92,4.77-.47,11.33-.47,11.33l.2,1.92a3,3,0,0,0,3.25,2.75l3.81-.36A3.44,3.44,0,0,0,313.24,238.31Z" style="fill:#b55b52"></path><path d="M295.05,217.49a186.07,186.07,0,0,1-41.6-.08,1,1,0,0,1-.72-1.32c.34-.8.68-1.6,1-2.4a.88.88,0,0,1,.89-.55,182,182,0,0,0,40,0,.9.9,0,0,1,1,.84c.08.82.16,1.65.25,2.48A.93.93,0,0,1,295.05,217.49Z" style="fill:#FF930F"></path><path d="M295.05,217.49a186.07,186.07,0,0,1-41.6-.08,1,1,0,0,1-.72-1.32c.34-.8.68-1.6,1-2.4a.88.88,0,0,1,.89-.55,182,182,0,0,0,40,0,.9.9,0,0,1,1,.84c.08.82.16,1.65.25,2.48A.93.93,0,0,1,295.05,217.49Z" style="fill:#fff;opacity:0.4"></path><path d="M305.56,198.19l-2.95-.92a3.58,3.58,0,0,0-3.25.57L295,201.12a6.72,6.72,0,0,0-2.65,5.55l.05,1.35c4.79,1.86,11.33.34,11.33.34l1.92-.23a3,3,0,0,0,2.71-3.28l-.4-3.79A3.42,3.42,0,0,0,305.56,198.19Z" style="fill:#b55b52"></path><path d="M257.23,166.35c.92,2.49,1.89,5.2,2.91,7.77s2.05,5.19,3.1,7.77,2.18,5.09,3.32,7.59,2.38,4.89,3.67,7.22l-.79-1c-.14,0,.4.45,1.17.82a17.56,17.56,0,0,0,2.83,1.06,57.41,57.41,0,0,0,7,1.51c2.45.4,5,.71,7.52,1s5.15.51,7.66.76h.11a3.34,3.34,0,0,1,.35,6.6,81.65,81.65,0,0,1-8.12,1.22c-2.72.28-5.46.44-8.26.47a52.78,52.78,0,0,1-8.64-.6,29.28,29.28,0,0,1-4.74-1.15,14.63,14.63,0,0,1-5.53-3.24,3.87,3.87,0,0,1-.53-.62l-.26-.39q-2.62-3.87-4.82-7.85c-1.45-2.65-2.82-5.33-4.08-8s-2.44-5.45-3.54-8.21-2.12-5.5-3-8.48a6.69,6.69,0,0,1,12.66-4.34Z" style="fill:#b65b52"></path><path d="M250.38,152.44c-5.43,4.12-8.17,11.25-6.57,25.8,10,3.61,21.15-.3,21.15-.3S258.53,147.84,250.38,152.44Z" style="fill:#FF930F"></path><path d="M251.49,157.6c-1.37-.7-2.76-1.4-4.19-2.06-.15.2-.3.39-.44.59,1.48.67,2.9,1.4,4.3,2.11l.64.32c2.84,1.45,5.75,2.86,8.67,4.25l-.39-1c-2.68-1.28-5.34-2.58-8-3.91Z" style="fill:#fff"></path><path d="M259.86,174.15c-2.15-.33-4.38-.56-6.53-.79-2.65-.27-5.38-.56-8-1-.66-.13-1.32-.28-2-.42,0,.24,0,.48,0,.73.6.14,1.2.28,1.82.39,2.63.48,5.37.77,8,1,2.15.23,4.36.46,6.5.79,1.6.25,3.17.58,4.71.94l-.19-.78C262.82,174.69,261.36,174.38,259.86,174.15Z" style="fill:#fff"></path></g></svg>